<?xml version="1.0" encoding="UTF-8"?>
<!-- Generator: visioncortex VTracer 0.6.12 -->
<svg version="1.1" xmlns="http://www.w3.org/2000/svg" width="1254" height="1254" viewBox="0 0 1254 1254" role="img" aria-labelledby="title desc">
<title id="title">TradingCat cow cat icon</title>
<desc id="desc">A geometric black and white tuxedo cat face with amber eyes and a pink nose.</desc>
<path d="M0,0 L1254,0 L1254,1254 L0,1254 Z " fill="#040C17" transform="translate(0,0)"/>
<path d="M0,0 L12,7 L40,26 L62,41 L76,51 L103,69 L123,83 L143,97 L155,105 L169,115 L185,126 L205,140 L227,155 L328,156 L373,166 L389,170 L420,177 L431,177 L452,173 L468,169 L494,164 L507,161 L529,156 L625,155 L637,147 L660,131 L672,123 L686,113 L708,98 L721,89 L740,76 L760,62 L772,54 L788,43 L811,27 L828,15 L840,7 L845,3 L850,1 L850,52 L847,207 L845,297 L843,392 L843,426 L849,446 L859,479 L871,520 L880,550 L890,585 L892,594 L878,618 L863,645 L854,661 L838,690 L822,719 L813,736 L790,747 L775,755 L752,766 L701,791 L678,802 L639,821 L619,830 L605,837 L582,848 L571,854 L548,856 L520,859 L489,862 L452,867 L436,869 L416,869 L368,863 L332,859 L292,855 L281,854 L241,834 L218,823 L189,809 L156,793 L139,785 L123,777 L95,763 L72,752 L40,737 L34,728 L19,700 L10,684 L-1,664 L-15,640 L-26,619 L-34,605 L-40,594 L-40,588 L-34,568 L-28,547 L-26,542 L-22,526 L-17,511 L-12,492 L-5,469 L6,431 L7,429 L7,360 L4,211 L1,74 L0,22 Z " fill="#1D1D1D" transform="translate(201,200)"/>
<path d="M0,0 L26,5 L62,13 L80,26 L100,40 L116,51 L119,56 L132,94 L144,131 L143,136 L134,147 L123,160 L112,174 L104,184 L80,198 L60,210 L44,222 L25,235 L13,244 L-18,247 L-55,252 L-71,254 L-91,254 L-139,248 L-175,244 L-191,232 L-216,215 L-231,205 L-251,193 L-265,185 L-275,174 L-284,162 L-296,148 L-307,134 L-304,123 L-289,79 L-279,52 L-264,41 L-245,28 L-227,15 L-221,12 L-195,7 L-174,2 L-162,1 L-156,10 L-141,36 L-133,50 L-132,55 L-88,99 L-87,106 L-87,129 L-88,138 L-95,152 L-111,162 L-129,175 L-146,186 L-130,178 L-91,158 L-82,153 L-77,155 L-62,163 L-43,172 L-27,180 L-18,185 L-40,170 L-67,152 L-75,138 L-75,103 L-73,97 L-65,90 L-54,79 L-47,71 L-32,57 L-30,55 L-28,47 L-12,20 Z " fill="#EAE2D9" transform="translate(708,815)"/>
<path d="M0,0 L3,3 L15,23 L31,49 L40,63 L57,91 L67,109 L79,128 L89,145 L105,172 L118,195 L128,212 L145,241 L143,246 L133,259 L123,273 L114,285 L100,304 L90,318 L80,331 L66,350 L50,371 L38,387 L25,404 L10,424 L9,424 L8,414 L4,211 L1,74 L0,22 Z " fill="#302F2E" transform="translate(201,200)"/>
<path d="M0,0 L1,0 L1,51 L-2,206 L-4,296 L-6,391 L-7,422 L-12,418 L-20,407 L-33,390 L-45,374 L-55,361 L-69,342 L-79,329 L-93,310 L-105,294 L-118,276 L-132,257 L-143,242 L-141,237 L-128,214 L-114,190 L-97,161 L-80,132 L-72,119 L-59,97 L-46,75 L-38,62 L-28,45 L-16,25 L-4,6 Z " fill="#2F2F2E" transform="translate(1050,201)"/>
<path d="M0,0 L11,7 L28,19 L38,26 L54,37 L74,51 L88,61 L99,69 L119,83 L133,93 L151,106 L161,113 L179,126 L196,138 L214,151 L231,163 L244,172 L257,181 L260,180 L271,194 L282,207 L305,220 L319,229 L331,237 L350,250 L368,263 L371,266 L369,267 L332,263 L321,262 L281,242 L258,231 L229,217 L196,201 L179,193 L163,185 L135,171 L112,160 L80,145 L74,136 L59,108 L50,92 L39,72 L25,48 L14,27 L6,13 L0,2 Z " fill="#2D2D2C" transform="translate(161,792)"/>
<path d="M0,0 L1,2 L-10,22 L-20,39 L-35,66 L-48,90 L-58,108 L-70,130 L-77,143 L-100,154 L-115,162 L-138,173 L-189,198 L-212,209 L-251,228 L-271,237 L-285,244 L-308,255 L-319,261 L-342,263 L-358,265 L-369,265 L-365,261 L-348,249 L-331,237 L-318,228 L-289,211 L-279,205 L-268,191 L-260,181 L-255,180 L-232,164 L-213,151 L-202,143 L-185,131 L-168,119 L-154,109 L-138,98 L-120,85 L-102,72 L-82,58 L-68,48 L-51,36 L-37,26 L-20,14 L-3,2 Z " fill="#2E2E2D" transform="translate(1091,793)"/>
<path d="M0,0 L19,0 L32,2 L48,8 L59,15 L72,26 L72,50 L65,74 L59,85 L52,94 L45,101 L35,108 L25,113 L6,117 L-13,117 L-29,113 L-44,107 L-62,95 L-63,94 L-63,67 L-57,46 L-50,33 L-43,24 L-36,17 L-28,11 L-14,4 L-9,2 Z " fill="#D99D39" transform="translate(821,636)"/>
<path d="M0,0 L20,0 L36,4 L51,12 L62,21 L70,31 L78,45 L82,57 L85,71 L85,94 L70,104 L58,110 L47,114 L31,117 L12,117 L-3,113 L-16,106 L-26,98 L-34,90 L-41,79 L-48,60 L-50,48 L-50,27 L-41,18 L-27,9 L-16,4 L-7,1 Z " fill="#D99C38" transform="translate(411,636)"/>
<path d="M0,0 L4,1 L29,18 L31,20 L35,50 L39,91 L41,104 L42,116 L49,141 L54,156 L56,164 L54,166 L-51,166 L-53,164 L-51,155 L-45,131 L-40,115 L-36,77 L-33,54 L-30,26 L-28,19 L-16,11 Z " fill="#E9E1D8" transform="translate(625,695)"/>
<path d="M0,0 L102,0 L103,9 L91,21 L83,28 L71,41 L61,51 L59,52 L58,57 L58,92 L65,104 L65,106 L70,108 L92,123 L117,140 L115,141 L105,135 L89,127 L68,117 L52,108 L46,110 L19,124 L0,134 L-15,142 L-17,141 L10,123 L24,113 L35,106 L37,106 L39,100 L43,92 L44,83 L44,60 L43,53 L-2,8 L-2,3 Z " fill="#BE6650" transform="translate(576,861)"/>
<path d="M0,0 L23,0 L37,3 L52,9 L65,17 L79,27 L82,32 L74,65 L67,86 L57,102 L52,108 L44,115 L33,122 L14,129 L6,130 L-18,130 L-35,126 L-54,118 L-80,111 L-75,86 L-70,66 L-65,67 L-65,102 L-50,112 L-38,118 L-21,123 L-16,124 L3,124 L22,120 L34,114 L45,105 L53,96 L59,86 L64,73 L68,58 L68,34 L56,24 L43,16 L25,10 L16,9 L-3,9 L-14,12 L-26,17 L-35,23 L-47,34 L-56,48 L-58,51 L-62,52 L-64,57 L-66,57 L-63,48 L-56,35 L-47,24 L-37,15 L-20,5 L-11,2 Z M-67,57 Z " fill="#151412" transform="translate(824,628)"/>
<path d="M0,0 L6,0 L12,5 L19,19 L23,34 L23,54 L20,69 L15,84 L10,93 L3,100 L-2,96 L-8,86 L-13,74 L-16,60 L-17,53 L-17,39 L-15,27 L-14,25 L-6,22 L-3,19 L-3,10 L-5,5 Z " fill="#121110" transform="translate(821,644)"/>
<path d="M0,0 L5,1 L12,9 L18,22 L21,35 L21,58 L18,72 L12,88 L6,97 L1,101 L-6,93 L-13,79 L-17,66 L-18,58 L-18,34 L-16,26 L-7,23 L-4,18 L-4,12 L-7,8 L-5,4 Z " fill="#111010" transform="translate(428,643)"/>
<path d="M0,0 L20,0 L36,4 L51,12 L62,21 L70,31 L78,45 L82,57 L85,71 L85,94 L70,104 L65,107 L62,107 L64,103 L72,89 L75,81 L75,62 L71,51 L65,40 L56,30 L46,23 L38,19 L28,16 L22,9 L17,8 L9,14 L6,13 L-1,13 L-5,16 L-18,19 L-29,25 L-39,34 L-45,43 L-48,55 L-49,55 L-50,48 L-50,27 L-41,18 L-27,9 L-16,4 L-7,1 Z " fill="#A2752D" transform="translate(411,636)"/>
<path d="M0,0 L19,0 L32,2 L48,8 L59,15 L72,26 L72,50 L70,54 L66,41 L62,35 L62,33 L58,31 L51,25 L33,17 L23,15 L12,15 L8,10 L6,9 L0,9 L-5,15 L-10,13 L-17,14 L-21,18 L-23,22 L-33,29 L-42,38 L-50,52 L-53,61 L-53,84 L-49,93 L-43,102 L-39,108 L-44,107 L-62,95 L-63,94 L-63,67 L-57,46 L-50,33 L-43,24 L-36,17 L-28,11 L-14,4 L-9,2 Z " fill="#A57830" transform="translate(821,636)"/>
<path d="M0,0 L4,2 L19,13 L35,24 L41,28 L46,27 L66,13 L80,3 L82,4 L72,14 L65,22 L53,34 L51,35 L50,40 L50,75 L57,87 L57,89 L62,91 L84,106 L109,123 L107,124 L97,118 L81,110 L60,100 L44,91 L38,93 L11,107 L-8,117 L-23,125 L-25,124 L2,106 L16,96 L27,89 L29,89 L31,83 L35,75 L36,66 L36,43 L35,36 L0,1 Z " fill="#242322" transform="translate(584,878)"/>
<path d="M0,0 L20,0 L28,2 L28,3 L22,4 L21,7 L25,9 L27,12 L23,10 L20,8 L16,9 L9,14 L6,13 L-1,13 L-5,16 L-18,19 L-29,25 L-39,34 L-45,43 L-48,55 L-49,55 L-50,48 L-50,27 L-41,18 L-27,9 L-16,4 L-7,1 Z " fill="#A1752F" transform="translate(411,636)"/>
<path d="M0,0 L9,2 L37,11 L47,13 L58,13 L74,9 L84,6 L92,2 L94,3 L93,6 L77,15 L61,26 L52,32 L48,31 L28,18 L18,12 L7,5 L0,1 Z " fill="#DED7CE" transform="translate(699,1005)"/>
<path d="M0,0 L1,2 L-10,8 L-23,16 L-34,23 L-44,30 L-45,33 L-50,31 L-57,28 L-71,18 L-86,9 L-87,5 L-74,9 L-56,13 L-42,12 L-28,9 L-8,3 Z " fill="#DED6CD" transform="translate(553,1005)"/>
<path d="M0,0 L7,0 L12,3 L15,7 L15,13 L11,19 L9,20 L-2,20 L-7,14 L-7,7 L-2,1 Z " fill="#E8DFD5" transform="translate(410,648)"/>
<path d="M0,0 L8,1 L13,6 L13,15 L7,20 L-2,20 L-7,16 L-8,14 L-8,8 L-4,2 Z " fill="#EBE2D9" transform="translate(806,648)"/>
<path d="M0,0 L7,6 L16,14 L26,20 L38,25 L47,27 L76,27 L79,27 L87,26 L87,29 L72,33 L59,34 L43,33 L31,29 L31,25 L18,18 L8,10 L0,2 Z " fill="#151210" transform="translate(376,725)"/>
<path d="M0,0 L10,3 L16,6 L17,10 L13,12 L9,15 L0,14 L-3,8 L-7,5 L-6,1 Z " fill="#9C702C" transform="translate(439,638)"/>
<path d="M0,0 L4,0 L5,6 L-30,24 L-39,29 L-41,28 L-14,10 Z " fill="#302F2D" transform="translate(600,974)"/>
<path d="M0,0 L8,1 L6,6 L2,10 L-8,12 L-13,15 L-13,12 L-16,9 L-16,7 L-5,2 Z " fill="#9D732F" transform="translate(812,638)"/>
<path d="M0,0 L5,2 L15,9 L22,12 L41,25 L39,26 L29,20 L13,12 L-6,3 L-3,1 Z " fill="#252323" transform="translate(652,976)"/>
<path d="M0,0 L5,2 L23,14 L24,16 L19,14 L9,7 L3,8 L-2,7 L-6,3 L-4,3 L-3,1 Z " fill="#1D1C1D" transform="translate(645,970)"/>
<path d="M0,0 L2,4 L-24,17 L-29,20 L-31,19 L-7,3 Z " fill="#272625" transform="translate(590,983)"/>
<path d="M0,0 L3,2 L-3,21 L-4,17 L-7,18 L-8,13 L-5,7 L-3,7 L-2,2 Z " fill="#1D1A16" transform="translate(763,678)"/>
<path d="M0,0 L1,0 L0,15 L-2,32 L-5,33 L-4,20 L-2,1 Z " fill="#E0DAD1" transform="translate(591,771)"/>
<path d="M0,0 L5,1 L5,9 L4,13 L3,29 L2,29 L2,9 L-3,14 Z " fill="#0F1011" transform="translate(754,694)"/>
<path d="M0,0 L1,0 L2,5 L2,17 L0,21 L-4,8 L-5,4 Z " fill="#8C6427" transform="translate(891,669)"/>
<path d="M0,0 L4,2 L19,13 L21,15 L20,20 L13,14 L0,1 Z " fill="#2E2827" transform="translate(584,878)"/>
<path d="M0,0 L4,2 L11,10 L20,24 L20,26 L22,26 L23,34 L21,33 L13,17 L6,8 Z " fill="#17130E" transform="translate(469,653)"/>
<path d="M0,0 L12,0 L15,2 L9,3 L8,6 L12,8 L14,11 L10,9 L7,7 L2,7 Z " fill="#B98736" transform="translate(424,637)"/>
<path d="M0,0 L6,0 L25,13 L23,14 L13,8 L0,2 Z " fill="#3A3838" transform="translate(668,988)"/>
<path d="M0,0 L2,0 L1,4 L-6,11 L-9,8 L-5,3 Z M-10,8 Z " fill="#313232" transform="translate(653,891)"/>
<path d="M0,0 L7,2 L4,5 L1,7 L-3,6 L-6,7 L-8,6 Z " fill="#232221" transform="translate(593,979)"/>
<path d="M0,0 L0,3 L-12,15 L-14,15 L-13,10 L-7,5 L-2,2 Z " fill="#E4DDD4" transform="translate(648,902)"/>
<path d="M0,0 L21,1 L20,3 L1,3 Z " fill="#C89336" transform="translate(807,750)"/>
<path d="M0,0 L2,1 L0,5 L-9,13 L-9,10 L-2,2 Z " fill="#AC7F35" transform="translate(783,655)"/>
<path d="M0,0 L2,3 L9,17 L9,20 L5,15 L-1,3 Z " fill="#231B10" transform="translate(366,705)"/>
<path d="M0,0 L4,0 L4,2 L-13,11 L-15,10 Z " fill="#444240" transform="translate(574,992)"/>
<path d="M0,0 L2,3 L-4,14 L-6,10 Z " fill="#E0DAD3" transform="translate(689,847)"/>
<path d="M0,0 L3,1 L0,4 L-7,8 L-11,6 L-9,4 Z " fill="#D09634" transform="translate(856,740)"/>
<path d="M0,0 L1,2 L7,1 L4,3 L-2,8 L-4,10 L-8,7 L-3,4 Z " fill="#B3863A" transform="translate(819,641)"/>
<path d="M0,0 L1,0 L1,15 L-2,16 L-2,7 L-1,7 Z " fill="#896426" transform="translate(495,707)"/>
<path d="M0,0 L3,3 L7,12 L7,17 L5,14 L5,11 L3,11 Z " fill="#A77B32" transform="translate(484,674)"/>
<path d="M0,0 L6,0 L2,1 L0,15 L-2,11 L-1,4 Z " fill="#C39745" transform="translate(805,668)"/>
<path d="M0,0 L3,1 L10,3 L10,5 L13,6 L5,5 L-1,3 Z " fill="#C38F33" transform="translate(409,746)"/>
<path d="M0,0 L2,4 L4,6 L0,11 L-2,15 L-3,12 Z " fill="#C28E37" transform="translate(447,706)"/>
<path d="M0,0 L1,0 L3,17 L0,14 L-1,4 Z " fill="#C89639" transform="translate(804,697)"/>
<path d="M0,0 L3,1 L4,4 L10,3 L6,6 L1,7 L-1,1 Z " fill="#2A2929" transform="translate(603,972)"/>
<path d="M0,0 L5,2 L4,4 L-1,5 L-6,3 L-3,1 Z " fill="#2B2A2B" transform="translate(652,976)"/>
<path d="M0,0 L6,0 L10,3 L9,6 L0,1 Z " fill="#D7D1CA" transform="translate(644,968)"/>
<path d="M0,0 L4,0 L5,3 L0,11 L-1,7 L1,3 Z " fill="#3C3A3A" transform="translate(679,854)"/>
<path d="M0,0 L1,0 L1,11 L-2,7 L-3,1 Z " fill="#896022" transform="translate(890,673)"/>
<path d="M0,0 L2,4 L-4,7 L-7,6 L-3,2 Z " fill="#353434" transform="translate(590,983)"/>
<path d="M0,0 L13,6 L10,8 L0,3 Z " fill="#E0DAD4" transform="translate(652,981)"/>
<path d="M0,0 L4,2 L12,8 L9,10 L0,1 Z " fill="#3F302B" transform="translate(584,878)"/>
<path d="M0,0 L1,0 L3,10 L2,18 L1,18 L0,13 Z " fill="#976D2D" transform="translate(758,703)"/>
<path d="M0,0 L3,1 L-1,5 L-5,7 L-7,5 Z " fill="#B35F48" transform="translate(634,899)"/>
<path d="M0,0 L2,1 L-6,9 L-9,7 Z " fill="#1C1311" transform="translate(664,881)"/>
<path d="M0,0 L7,0 L4,3 L-2,4 L-5,1 Z " fill="#271F14" transform="translate(453,750)"/>
<path d="M0,0 L2,1 L-9,8 L-11,8 L-10,5 Z " fill="#16120F" transform="translate(483,738)"/>
<path d="M0,0 L4,0 L5,6 L2,7 L-1,5 Z " fill="#353433" transform="translate(600,974)"/>
<path d="M0,0 L2,1 L-4,8 L-8,9 L-2,2 Z " fill="#D8D3CA" transform="translate(665,882)"/>
<path d="M0,0 L3,0 L3,3 L7,2 L6,5 L2,6 Z " fill="#262524" transform="translate(678,849)"/>
<path d="M0,0 L6,0 L1,5 L-1,8 L-1,2 Z " fill="#0D0B09" transform="translate(807,669)"/>
<path d="M0,0 L10,0 L13,2 L5,3 L0,1 Z " fill="#C7923D" transform="translate(426,637)"/>
<path d="M0,0 L4,5 L2,9 L-1,3 Z " fill="#D9D3CE" transform="translate(555,832)"/>
<path d="M0,0 L3,1 L-5,7 L-7,7 L-6,4 Z " fill="#171411" transform="translate(493,731)"/>
<path d="M0,0 L2,0 L0,4 L-4,9 L-5,5 Z " fill="#201C16" transform="translate(821,644)"/>
<path d="M0,0 L3,2 L-2,6 L-5,6 L-3,2 Z " fill="#353433" transform="translate(771,1022)"/>
<path d="M0,0 L5,0 L4,2 L0,4 L-6,4 L-2,1 Z " fill="#E0DAD3" transform="translate(611,976)"/>
<path d="M0,0 L3,1 L2,4 L-2,5 L-6,6 L-1,1 Z " fill="#271D1B" transform="translate(654,888)"/>
<path d="M0,0 L4,1 L6,5 L1,4 L-2,1 Z " fill="#966E2D" transform="translate(776,739)"/>
<path d="M0,0 L3,2 L0,6 L-3,6 L-1,1 Z " fill="#1B1916" transform="translate(763,678)"/>
<path d="M0,0 L4,1 L8,7 L6,9 L3,3 Z " fill="#956C2C" transform="translate(473,661)"/>
<path d="M0,0 L7,2 L3,4 L-2,2 Z " fill="#2A292A" transform="translate(665,985)"/>
<path d="M0,0 L1,0 L1,8 L-1,8 L-1,11 L-3,11 Z " fill="#CFCBC5" transform="translate(409,923)"/>
<path d="M0,0 L2,3 L0,10 L-2,6 Z " fill="#D5D0CA" transform="translate(417,900)"/>
<path d="M0,0 L4,2 L9,7 L6,7 L1,2 Z " fill="#BD5F45" transform="translate(613,896)"/>
<path d="M0,0 L6,4 L4,8 L0,2 Z " fill="#333231" transform="translate(161,792)"/>
<path d="M0,0 L1,3 L0,8 L-5,5 L-2,3 Z " fill="#AA7C33" transform="translate(772,731)"/>
<path d="M0,0 L2,0 L0,4 L-3,6 L-5,4 Z " fill="#B88739" transform="translate(793,647)"/>
<path d="M0,0 L3,0 L1,4 L-3,6 L-2,2 Z " fill="#2C2C2A" transform="translate(837,967)"/>
<path d="M0,0 L5,5 L6,7 L2,6 L0,4 Z " fill="#DED9D1" transform="translate(404,949)"/>
<path d="M0,0 L2,3 L0,7 L-3,7 L-1,1 Z " fill="#DAD4CD" transform="translate(689,847)"/>
<path d="M0,0 L3,1 L3,3 L0,5 L-3,5 L-1,1 Z " fill="#956929" transform="translate(476,738)"/>
<path d="M0,0 L5,2 L3,4 L-6,3 L-6,2 L0,1 Z " fill="#272728" transform="translate(527,1055)"/>
<path d="M0,0 L3,0 L2,6 L-1,7 Z " fill="#D9D3CC" transform="translate(580,826)"/>
</svg>
